<svg width="24.000000" height="24.000000" viewBox="0 0 24 24" fill="none" xmlns="http://www.w3.org/2000/svg" xmlns:xlink="http://www.w3.org/1999/xlink">
	<desc>
			Created with Pixso.
	</desc>
	<defs>
		<clipPath id="clip41_369">
			<rect id="ph:clock" width="24.000000" height="24.000000" fill="white" fill-opacity="0"/>
		</clipPath>
	</defs>
	<rect id="ph:clock" width="24.000000" height="24.000000" fill="#FFFFFF" fill-opacity="0"/>
	<g clip-path="url(#clip41_369)">
		<path id="Vector" d="M12 2.25C10.0715 2.25 8.18652 2.82227 6.58325 3.89355C4.97974 4.96484 3.73022 6.4873 2.99219 8.26855C2.25415 10.0508 2.06104 12.0107 2.43726 13.9023C2.81348 15.793 3.74219 17.5303 5.10571 18.8945C6.46924 20.2578 8.20654 21.1865 10.0979 21.5625C11.9893 21.9385 13.9497 21.7461 15.7312 21.0078C17.5127 20.2695 19.0356 19.0205 20.1069 17.417C21.1782 15.8135 21.75 13.9287 21.75 12C21.7471 9.41504 20.7192 6.93652 18.8914 5.1084C17.0635 3.28125 14.585 2.25293 12 2.25ZM12 20.25C10.3684 20.25 8.77319 19.7666 7.4165 18.8594C6.05981 17.9531 5.00244 16.665 4.37793 15.1572C3.75366 13.6494 3.59009 11.9912 3.90845 10.3906C4.22681 8.79004 5.0127 7.32031 6.16626 6.16602C7.32007 5.0127 8.79028 4.22656 10.3906 3.9082C11.991 3.58984 13.6497 3.75391 15.1572 4.37793C16.6646 5.00195 17.9531 6.05957 18.8596 7.41699C19.7661 8.77344 20.25 10.3682 20.25 12C20.2476 14.1875 19.3774 16.2842 17.8308 17.8311C16.2842 19.3779 14.1873 20.2471 12 20.25ZM18 12C18 12.1992 17.9209 12.3896 17.7803 12.5303C17.6396 12.6709 17.449 12.75 17.25 12.75L12 12.75C11.801 12.75 11.6104 12.6709 11.4697 12.5303C11.3291 12.3896 11.25 12.1992 11.25 12L11.25 6.75C11.25 6.55078 11.3291 6.36035 11.4697 6.21973C11.6104 6.0791 11.801 6 12 6C12.199 6 12.3896 6.0791 12.5303 6.21973C12.6709 6.36035 12.75 6.55078 12.75 6.75L12.75 11.25L17.25 11.25C17.449 11.25 17.6396 11.3291 17.7803 11.4697C17.9209 11.6104 18 11.8008 18 12Z" fill="#FFF9F4" fill-opacity="1.000000" fill-rule="nonzero"/>
	</g>
</svg>
