<svg width="24.000000" height="24.000000" viewBox="0 0 24 24" fill="none" xmlns="http://www.w3.org/2000/svg" xmlns:xlink="http://www.w3.org/1999/xlink">
	<desc>
			Created with Pixso.
	</desc>
	<defs>
		<clipPath id="clip41_351">
			<rect id="ph:copyright-thin" width="24.000000" height="24.000000" fill="white" fill-opacity="0"/>
		</clipPath>
	</defs>
	<rect id="ph:copyright-thin" width="24.000000" height="24.000000" fill="#FFFFFF" fill-opacity="0"/>
	<g clip-path="url(#clip41_351)">
		<path id="Vector" d="M12 2.625C10.146 2.625 8.33301 3.1748 6.7915 4.20508C5.25 5.23535 4.04834 6.69922 3.33887 8.41211C2.62891 10.125 2.44336 12.0107 2.80518 13.8291C3.16699 15.6475 4.05957 17.3184 5.37109 18.6289C6.68213 19.9404 8.35254 20.833 10.1709 21.1953C11.9897 21.5566 13.8745 21.3711 15.5879 20.6611C17.3008 19.9521 18.7646 18.75 19.7949 17.208C20.8252 15.667 21.375 13.8545 21.375 12C21.3721 9.51465 20.3838 7.13184 18.626 5.37402C16.8687 3.61621 14.4854 2.62793 12 2.625ZM12 20.625C10.2939 20.625 8.62646 20.1191 7.20801 19.1719C5.79004 18.2236 4.68457 16.877 4.03174 15.3008C3.37891 13.7246 3.20801 11.9902 3.54053 10.3174C3.87354 8.64453 4.69482 7.10742 5.90137 5.90137C7.10742 4.69531 8.64404 3.87305 10.3174 3.54102C11.9902 3.20801 13.7246 3.37891 15.3008 4.03125C16.8765 4.68457 18.2236 5.79004 19.1714 7.20801C20.1191 8.62695 20.625 10.2939 20.625 12C20.6226 14.2871 19.7129 16.4795 18.0962 18.0957C16.479 19.7129 14.2866 20.6221 12 20.625ZM15.2998 14.4756C14.7803 15.168 14.0562 15.6797 13.23 15.9375C12.4033 16.1953 11.5171 16.1865 10.6958 15.9131C9.87451 15.6396 9.16016 15.1143 8.6543 14.4121C8.14795 13.709 7.87549 12.8652 7.87549 12C7.87549 11.1348 8.14795 10.291 8.6543 9.58789C9.16016 8.88574 9.87451 8.36035 10.6958 8.08691C11.5171 7.81348 12.4033 7.80469 13.23 8.0625C14.0562 8.32031 14.7803 8.83203 15.2998 9.52441C15.3296 9.56348 15.3511 9.6084 15.3633 9.65625C15.3755 9.7041 15.3784 9.75391 15.3716 9.80176C15.3647 9.85059 15.3481 9.89844 15.3232 9.94043C15.2979 9.98242 15.2646 10.0195 15.2256 10.0498C15.186 10.0791 15.1411 10.1006 15.0933 10.1133C15.0459 10.125 14.9961 10.1279 14.9473 10.1211C14.8984 10.1143 14.8516 10.0977 14.8091 10.0723C14.7666 10.0479 14.7295 10.0146 14.7002 9.97461C14.2749 9.4082 13.6826 8.98926 13.0063 8.77832C12.3301 8.56738 11.605 8.57422 10.9326 8.79785C10.2607 9.02246 9.67627 9.45215 9.26221 10.0264C8.84766 10.6016 8.625 11.292 8.625 12C8.625 12.708 8.84766 13.3984 9.26221 13.9736C9.67627 14.5479 10.2607 14.9775 10.9326 15.2021C11.605 15.4258 12.3301 15.4326 13.0063 15.2217C13.6826 15.0107 14.2749 14.5918 14.7002 14.0254C14.7598 13.9453 14.8486 13.8926 14.9473 13.8789C15.0459 13.8652 15.146 13.8906 15.2256 13.9502C15.3052 14.0107 15.3574 14.0996 15.3716 14.1982C15.3857 14.2959 15.3599 14.3965 15.2998 14.4756Z" fill="#DEC5B1" fill-opacity="1.000000" fill-rule="nonzero"/>
	</g>
</svg>
