<svg width="33.113525" height="33.116211" viewBox="0 0 33.1135 33.1162" fill="none" xmlns="http://www.w3.org/2000/svg" xmlns:xlink="http://www.w3.org/1999/xlink">
	<desc>
			Created with Pixso.
	</desc>
	<defs/>
	<path id="Vector" d="M30.3254 4.64355L25.9165 4.64355C26.0864 4.01953 26.0886 3.3623 25.9226 2.73828C25.7568 2.11328 25.4287 1.54395 24.9717 1.08691C24.2715 0.400391 23.3306 0.0166016 22.3503 0.0166016C21.3704 0.0166016 20.4292 0.400391 19.729 1.08691L16.552 4.27148L13.3843 1.08691C13.0403 0.742188 12.6316 0.46875 12.1819 0.282227C11.7319 0.0957031 11.25 0 10.7629 0C10.2761 0 9.79395 0.0957031 9.34424 0.282227C8.89453 0.46875 8.48584 0.742188 8.14185 1.08691C7.68481 1.54395 7.35669 2.11328 7.19067 2.73828C7.0249 3.3623 7.02686 4.01953 7.19702 4.64355L2.77881 4.64355C2.04175 4.64355 1.33496 4.93652 0.813965 5.45703C0.292725 5.97852 0 6.68555 0 7.42188L0 9.27441C0.000244141 9.8252 0.165527 10.3623 0.474121 10.8184C0.782959 11.2744 1.22095 11.627 1.73218 11.8311L1.73218 28.4854C1.7356 29.7119 2.22461 30.8887 3.09229 31.7559C3.96021 32.624 5.13599 33.1133 6.36328 33.1162L26.7407 33.1162C27.9692 33.1162 29.1472 32.6279 30.0156 31.7598C30.884 30.8916 31.3721 29.7139 31.3721 28.4854L31.3721 11.8496C31.8845 11.6406 32.3237 11.2852 32.6338 10.8262C32.9436 10.3682 33.1106 9.82812 33.1135 9.27441L33.1135 7.42188C33.1135 7.05664 33.0413 6.69434 32.9011 6.35645C32.7607 6.01855 32.5554 5.71191 32.2964 5.4541C32.0374 5.19629 31.7297 4.99121 31.3916 4.85254C31.0535 4.71289 30.6912 4.64258 30.3254 4.64355ZM9.44775 2.40039C9.79492 2.05469 10.2644 1.86133 10.7537 1.86133C11.2432 1.86133 11.7126 2.05469 12.0598 2.40039L14.3013 4.64355L9.16992 4.64355C8.95874 4.29199 8.87109 3.88086 8.92163 3.47363C8.97192 3.06738 9.15723 2.68945 9.44775 2.40039ZM14.6997 31.2637L6.36328 31.2637C5.62646 31.2637 4.91968 30.9707 4.39844 30.4502C3.87744 29.9287 3.58447 29.2217 3.58447 28.4854L3.58447 12.0537L14.6997 12.0537L14.6997 31.2637ZM14.6997 10.2012L2.77881 10.2012C2.5332 10.2012 2.29761 10.1035 2.12378 9.92969C1.9502 9.75586 1.85254 9.52051 1.85254 9.27441L1.85254 7.42188C1.85254 7.17676 1.9502 6.94141 2.12378 6.76758C2.29761 6.59375 2.5332 6.49609 2.77881 6.49609L14.6997 6.49609L14.6997 10.2012ZM21.0537 2.40039C21.3723 2.08301 21.7952 1.89355 22.2437 1.86523C22.6921 1.83691 23.1355 1.97266 23.4912 2.24707C23.8469 2.52148 24.0908 2.91602 24.1775 3.35645C24.2642 3.79785 24.1875 4.25488 23.9622 4.64355L18.8123 4.64355L21.0537 2.40039ZM29.5195 28.4854C29.5195 29.2217 29.2268 29.9287 28.7058 30.4502C28.1846 30.9707 27.4778 31.2637 26.7407 31.2637L18.4045 31.2637L18.4045 12.0537L29.5195 12.0537L29.5195 28.4854ZM31.261 9.27441C31.261 9.52051 31.1633 9.75586 30.9897 9.92969C30.8159 10.1035 30.5803 10.2012 30.3347 10.2012L18.4045 10.2012L18.4045 6.49609L30.3347 6.49609C30.5803 6.49609 30.8159 6.59375 30.9897 6.76758C31.1633 6.94141 31.261 7.17676 31.261 7.42188L31.261 9.27441Z" fill="#704174" fill-opacity="1.000000" fill-rule="evenodd"/>
</svg>
