<svg width="18.884033" height="18.916016" viewBox="0 0 18.884 18.916" fill="none" xmlns="http://www.w3.org/2000/svg" xmlns:xlink="http://www.w3.org/1999/xlink">
	<desc>
			Created with Pixso.
	</desc>
	<defs/>
	<path id="Vector" d="M13.4419 4.45898C13.4419 4.19336 13.5474 3.93945 13.7349 3.75195C13.9224 3.56445 14.1768 3.45898 14.4419 3.45898C14.707 3.45898 14.9614 3.56445 15.1489 3.75195C15.3364 3.93945 15.4419 4.19336 15.4419 4.45898C15.4419 4.72461 15.3364 4.97852 15.1489 5.16602C14.9614 5.35352 14.707 5.45898 14.4419 5.45898C14.1768 5.45898 13.9224 5.35352 13.7349 5.16602C13.5474 4.97852 13.4419 4.72461 13.4419 4.45898Z" fill="#CEAAD0" fill-opacity="1.000000" fill-rule="nonzero"/>
	<path id="Vector" d="M9.44189 4.70898C8.18213 4.70898 6.97388 5.20898 6.08325 6.10059C5.19238 6.99121 4.69189 8.19922 4.69189 9.45898C4.69189 10.7188 5.19238 11.9268 6.08325 12.8174C6.97388 13.709 8.18213 14.209 9.44189 14.209C10.7017 14.209 11.9099 13.709 12.8005 12.8174C13.6914 11.9268 14.1919 10.7188 14.1919 9.45898C14.1919 8.19922 13.6914 6.99121 12.8005 6.10059C11.9099 5.20898 10.7017 4.70898 9.44189 4.70898ZM6.19189 9.45898C6.19189 8.59668 6.53442 7.77051 7.1438 7.16113C7.75317 6.55176 8.57983 6.20898 9.44189 6.20898C10.304 6.20898 11.1306 6.55176 11.74 7.16113C12.3494 7.77051 12.6919 8.59668 12.6919 9.45898C12.6919 10.3213 12.3494 11.1475 11.74 11.7568C11.1306 12.3662 10.304 12.709 9.44189 12.709C8.57983 12.709 7.75317 12.3662 7.1438 11.7568C6.53442 11.1475 6.19189 10.3213 6.19189 9.45898Z" fill="#CEAAD0" fill-opacity="1.000000" fill-rule="evenodd"/>
	<path id="Vector" d="M14.7 0.291016C11.2053 -0.0966797 7.67847 -0.0966797 4.18384 0.291016C2.17188 0.515625 0.546875 2.10059 0.311035 4.12207C-0.10376 7.66699 -0.10376 11.248 0.311035 14.793C0.546875 16.8145 2.1709 18.3994 4.18384 18.625C7.67871 19.0117 11.2053 19.0117 14.7 18.625C16.7119 18.3994 18.3369 16.8145 18.573 14.793C18.9875 11.248 18.9875 7.66699 18.573 4.12207C18.3369 2.10059 16.7129 0.515625 14.7 0.291016ZM4.34985 1.78027C7.73438 1.40527 11.1497 1.40527 14.5339 1.78027C15.864 1.93066 16.929 2.97949 17.084 4.29785C17.4849 7.72559 17.4849 11.1895 17.084 14.6172C17.0037 15.2627 16.7085 15.8613 16.2458 16.3184C15.7832 16.7744 15.1799 17.0625 14.5339 17.1338C11.1497 17.5088 7.73413 17.5088 4.34985 17.1338C3.70386 17.0625 3.10083 16.7744 2.63818 16.3184C2.17529 15.8613 1.88013 15.2627 1.80005 14.6172C1.39893 11.1895 1.39893 7.72559 1.80005 4.29785C1.88013 3.65234 2.17529 3.05371 2.63818 2.59668C3.10083 2.14062 3.70386 1.85254 4.34985 1.78027Z" fill="#CEAAD0" fill-opacity="1.000000" fill-rule="evenodd"/>
</svg>
